<svg width="109" height="37" viewBox="0 0 109 37" fill="none" xmlns="http://www.w3.org/2000/svg">
<path d="M60.1598 20.34C61.4928 19.5611 62.5763 18.4185 63.2834 17.046C64.0321 15.4976 64.4211 13.8 64.4211 12.0801C64.4211 10.3601 64.0321 8.66247 63.2834 7.11407C62.5752 5.75231 61.4986 4.61689 60.1764 3.8372C58.8038 3.08001 57.2618 2.68288 55.6942 2.68288C54.1266 2.68288 52.5845 3.08001 51.2119 3.8372C49.8895 4.61654 48.8128 5.75205 48.1049 7.11407C47.3564 8.66252 46.9676 10.3602 46.9676 12.0801C46.9676 13.7999 47.3564 15.4976 48.1049 17.046C48.812 18.4187 49.8958 19.5613 51.2291 20.34C52.5956 21.0971 54.1322 21.4943 55.6944 21.4943C57.2567 21.4943 58.7932 21.0971 60.1598 20.34V20.34ZM49.6844 22.6319C47.8852 21.6142 46.3996 20.1227 45.3891 18.3195C44.3528 16.4062 43.8101 14.2646 43.8101 12.0886C43.8101 9.91267 44.3528 7.77108 45.3891 5.85776C46.3998 4.05472 47.8854 2.56322 49.6844 1.54539C51.5316 0.531526 53.6047 0 55.7118 0C57.8189 0 59.892 0.531526 61.7392 1.54539C63.5322 2.55773 65.0122 4.04366 66.0173 5.84063C67.0429 7.76354 67.5793 9.90933 67.5793 12.0886C67.5793 14.2679 67.0429 16.4137 66.0173 18.3366C65.0122 20.1336 63.5322 21.6195 61.7392 22.6319C59.8919 23.6455 57.8189 24.1768 55.7118 24.1768C53.6047 24.1768 51.5316 23.6455 49.6844 22.6319" fill="#161615"/>
<path d="M73.3858 11.7828H77.9361C79.6109 11.7828 80.8672 11.3704 81.705 10.5456C82.1302 10.1093 82.4612 9.59033 82.6773 9.0208C82.8934 8.45127 82.9901 7.84338 82.9613 7.2349C82.9983 6.63479 82.9071 6.03368 82.6938 5.47155C82.4805 4.90942 82.1499 4.39915 81.7241 3.97469C80.8973 3.20536 79.6355 2.82054 77.9385 2.82022H73.3882L73.3858 11.7828ZM82.7577 23.939L77.1209 14.2617H73.3863V23.939H70.296V0.271909H77.9366C79.4981 0.224372 81.0495 0.538202 82.4698 1.18892C83.6175 1.72269 84.5806 2.58548 85.237 3.66775C85.8249 4.62577 86.1684 5.71357 86.2374 6.83548C86.3063 7.95739 86.0986 9.07906 85.6324 10.1019C85.1662 11.1247 84.4559 12.0173 83.5639 12.7012C82.6719 13.3852 81.6255 13.8395 80.5168 14.0242L86.459 23.9395L82.7577 23.939Z" fill="#161615"/>
<path d="M102.689 16.1628L98.4106 4.21029L94.132 16.1628H102.689ZM103.571 18.6754H93.2492L91.3457 23.9386H88.0855L96.6422 0.407104H100.207L108.73 23.9386H105.471L103.571 18.6754Z" fill="#161615"/>
<path d="M19.7334 27.998C19.7188 29.1746 19.9278 30.3426 20.3484 31.434C20.7689 32.5255 21.3926 33.5188 22.1831 34.3563C22.9737 35.1937 23.9155 35.8587 24.9537 36.3125C25.992 36.7663 27.1062 37 28.2315 37C29.3569 37 30.471 36.7663 31.5093 36.3125C32.5476 35.8587 33.4893 35.1937 34.2799 34.3563C35.0705 33.5188 35.6941 32.5255 36.1146 31.434C36.5352 30.3426 36.7442 29.1746 36.7296 27.998V19H28.2287C27.1056 19.0072 25.9949 19.2457 24.96 19.7018C23.9251 20.1579 22.9863 20.8228 22.1972 21.6583C21.408 22.4939 20.784 23.4838 20.3608 24.5716C19.9376 25.6594 19.7234 26.8236 19.7305 27.998" fill="#161615"/>
<path d="M19.7305 0C19.7111 4.75283 21.4911 9.31915 24.6791 12.6947C27.867 16.0702 32.2018 17.9786 36.7302 18C36.7498 13.2471 34.9698 8.68068 31.7818 5.3051C28.5938 1.92953 24.2589 0.021248 19.7305 0" fill="#161615"/>
<path d="M14.6717 16.1504C14.6717 16.4392 14.7574 16.7216 14.9178 16.9618C15.0783 17.202 15.3064 17.3892 15.5733 17.4997C15.8402 17.6103 16.1339 17.6392 16.4172 17.5828C16.7005 17.5265 16.9607 17.3874 17.165 17.1831C17.3693 16.9789 17.5084 16.7186 17.5647 16.4353C17.6211 16.152 17.5921 15.8583 17.4816 15.5914C17.371 15.3246 17.1839 15.0965 16.9437 14.936C16.7035 14.7755 16.4211 14.6898 16.1322 14.6898C15.7449 14.6898 15.3734 14.8437 15.0995 15.1176C14.8256 15.3915 14.6717 15.763 14.6717 16.1504Z" fill="#161615"/>
<path d="M17.5935 1.61699V0.0110474C12.949 0.0836166 8.51524 1.96129 5.23127 5.24634C1.9473 8.53139 0.0710952 12.9658 6.10352e-05 17.6102H1.60528C1.67664 13.3922 3.38344 9.36667 6.36569 6.38279C9.34794 3.39891 13.3725 1.68992 17.5905 1.61626" fill="#161615"/>
<path d="M17.5942 6.16509V4.55914C14.1707 4.67665 10.9196 6.08997 8.49853 8.51324C6.07743 10.9365 4.66701 14.1888 4.55255 17.6124H6.15849C6.27283 14.6149 7.51401 11.7709 9.63404 9.64873C11.7541 7.52655 14.5968 6.28247 17.5942 6.16509" fill="#161615"/>
<path d="M17.5935 10.7037V9.0636C15.3818 9.22802 13.3027 10.1814 11.7349 11.7501C10.1672 13.3188 9.21504 15.3984 9.05194 17.6102H10.692C10.8332 15.8262 11.6056 14.151 12.8706 12.8852C14.1356 11.6194 15.8103 10.846 17.5942 10.7037" fill="#161615"/>
<path d="M0.743042 23.749C0.917867 24.3444 1.12265 24.9306 1.35663 25.5054H11.4823V35.6558C12.0569 35.8914 12.6431 36.0977 13.2387 36.2737V23.749H0.743042Z" fill="#161615"/>
<path d="M2.66663 28.1168C3.03751 28.7253 3.44337 29.3118 3.88217 29.8733H7.12022V33.1193C7.68174 33.5598 8.26819 33.9676 8.87665 34.3407V28.1168H2.66663Z" fill="#161615"/>
<path d="M17.568 35.2435V19.4357H0.013855C0.042935 20.0289 0.101822 20.6141 0.1847 21.1921H15.8108V36.8408C16.3231 36.9154 16.8422 36.9685 17.3681 37H17.5673L17.568 35.2435Z" fill="#161615"/>
</svg>
